<svg width="192" height="192" viewBox="0 0 192 192" fill="none" xmlns="http://www.w3.org/2000/svg">
  <!-- Background -->
  <rect width="192" height="192" rx="40" fill="#0097a7" opacity="0.1"/>
  
  <!-- Blueprint Grid -->
  <g opacity="0.3" stroke="#0097a7" stroke-width="1">
    <line x1="50" y1="30" x2="50" y2="162" stroke-dasharray="4,4"/>
    <line x1="96" y1="30" x2="96" y2="162" stroke-dasharray="4,4"/>
    <line x1="142" y1="30" x2="142" y2="162" stroke-dasharray="4,4"/>
    <line x1="30" y1="50" x2="162" y2="50" stroke-dasharray="4,4"/>
    <line x1="30" y1="96" x2="162" y2="96" stroke-dasharray="4,4"/>
    <line x1="30" y1="142" x2="162" y2="142" stroke-dasharray="4,4"/>
  </g>
  
  <!-- Module Blocks -->
  <!-- State Management (Redux) -->
  <rect x="25" y="35" width="35" height="35" rx="6" fill="#0097a7" stroke="#ff7043" stroke-width="2"/>
  <text x="42.5" y="58" font-size="20" font-weight="bold" fill="#ffffff" text-anchor="middle">∿</text>
  
  <!-- Firebase -->
  <rect x="132" y="35" width="35" height="35" rx="6" fill="#ff7043" stroke="#0097a7" stroke-width="2"/>
  <text x="149.5" y="58" font-size="20" font-weight="bold" fill="#ffffff" text-anchor="middle">⚡</text>
  
  <!-- Navigation -->
  <rect x="25" y="122" width="35" height="35" rx="6" fill="#ff7043" stroke="#0097a7" stroke-width="2"/>
  <text x="42.5" y="145" font-size="20" font-weight="bold" fill="#ffffff" text-anchor="middle">→</text>
  
  <!-- Query/Data -->
  <rect x="132" y="122" width="35" height="35" rx="6" fill="#0097a7" stroke="#ff7043" stroke-width="2"/>
  <text x="149.5" y="145" font-size="20" font-weight="bold" fill="#ffffff" text-anchor="middle">⚙</text>
  
  <!-- Center Core -->
  <circle cx="96" cy="96" r="15" fill="#0097a7"/>
  <circle cx="96" cy="96" r="10" fill="#ffffff" opacity="0.9"/>
  <circle cx="96" cy="96" r="5" fill="#0097a7"/>
  
  <!-- Connecting Lines -->
  <line x1="60" y1="52" x2="81" y2="82" stroke="#0097a7" stroke-width="2" opacity="0.6"/>
  <line x1="132" y1="52" x2="111" y2="82" stroke="#0097a7" stroke-width="2" opacity="0.6"/>
  <line x1="42" y1="122" x2="81" y2="110" stroke="#0097a7" stroke-width="2" opacity="0.6"/>
  <line x1="150" y1="122" x2="111" y2="110" stroke="#0097a7" stroke-width="2" opacity="0.6"/>
</svg>