<svg width="192" height="192" viewBox="0 0 192 192" fill="none" xmlns="http://www.w3.org/2000/svg">
  <!-- Background -->
  <rect width="192" height="192" rx="40" fill="#0097a7" opacity="0.1"/>
  
  <!-- Component Boxes -->
  <g>
    <!-- Top Left Box -->
    <rect x="20" y="20" width="50" height="50" rx="8" fill="#0097a7"/>
    <circle cx="45" cy="45" r="12" fill="#ffffff" opacity="0.8"/>
    
    <!-- Top Right Box -->
    <rect x="122" y="20" width="50" height="50" rx="8" fill="#ff7043"/>
    <rect x="135" y="35" width="24" height="20" rx="4" fill="#ffffff" opacity="0.8"/>
    
    <!-- Bottom Left Box -->
    <rect x="20" y="122" width="50" height="50" rx="8" fill="#ff7043"/>
    <path d="M35 137 L55 147 L35 157 Z" fill="#ffffff" opacity="0.8"/>
    
    <!-- Bottom Right Box -->
    <rect x="122" y="122" width="50" height="50" rx="8" fill="#0097a7"/>
    <line x1="135" y1="137" x2="160" y2="137" stroke="#ffffff" stroke-width="3" opacity="0.8" stroke-linecap="round"/>
    <line x1="135" y1="147" x2="160" y2="147" stroke="#ffffff" stroke-width="3" opacity="0.8" stroke-linecap="round"/>
    <line x1="135" y1="157" x2="160" y2="157" stroke="#ffffff" stroke-width="3" opacity="0.8" stroke-linecap="round"/>
  </g>
  
  <!-- Center Connector -->
  <circle cx="96" cy="96" r="8" fill="#0097a7"/>
  <line x1="70" y1="45" x2="96" y2="96" stroke="#0097a7" stroke-width="2" opacity="0.5"/>
  <line x1="122" y1="45" x2="96" y2="96" stroke="#0097a7" stroke-width="2" opacity="0.5"/>
  <line x1="45" y1="122" x2="96" y2="96" stroke="#0097a7" stroke-width="2" opacity="0.5"/>
  <line x1="147" y1="122" x2="96" y2="96" stroke="#0097a7" stroke-width="2" opacity="0.5"/>
</svg>