<?xml version="1.0" encoding="utf-8"?>
<!-- Generator: Adobe Illustrator 21.0.0, SVG Export Plug-In . SVG Version: 6.00 Build 0)  -->
<svg version="1.1" id="Layer_1" xmlns="http://www.w3.org/2000/svg" xmlns:xlink="http://www.w3.org/1999/xlink" x="0px" y="0px"
	 viewBox="0 0 512 512" style="enable-background:new 0 0 512 512;" xml:space="preserve">
<style type="text/css">
	.st0{fill:#FFFFFF;}
</style>
<g id="XMLID_228_">
	<path id="XMLID_229_" class="st0" d="M68.4,188.2c-43.3,75.1-15.8,189.1,32.1,258.2c23.9,34.6,48.1,65.6,81.2,65.6
		c0.6,0,1.3,0,1.9,0c15.6-0.6,26.8-5.4,37.7-10c12.2-5.2,24.8-10.6,44.6-10.6c18.8,0,30.9,5.2,42.5,10.2c11.5,5,23.3,10.1,40.7,9.8
		c37.3-0.7,60.2-34.2,80.5-63.7c21.1-30.8,31.7-60.8,35.2-72.2l0.1-0.5c0.7-2-0.3-4.3-2.2-5.1c-0.1,0-0.3-0.1-0.3-0.1
		c-6.6-2.7-64.2-28.3-64.8-98c-0.6-56.6,43.2-86.6,52-92.1l0.4-0.3c1-0.6,1.6-1.6,1.8-2.7c0.2-1.1,0-2.3-0.6-3.2
		c-30.2-44.3-76.6-50.9-95.2-51.7c-2.7-0.3-5.5-0.4-8.3-0.4c-21.9,0-42.9,8.3-59.8,14.9c-11.6,4.6-21.7,8.6-28.6,8.6
		c-7.8,0-17.9-4-29.6-8.7C214,130,196.3,123,177.5,123c-0.4,0-0.9,0-1.3,0C132.4,123.6,91.1,148.6,68.4,188.2z"/>
	<path id="XMLID_230_" class="st0" d="M356.1,0c-26.5,1.1-58.2,17.4-77.2,39.6c-16.1,18.7-31.9,49.8-27.7,81.2
		c0.3,2,1.9,3.5,3.8,3.6c1.8,0.1,3.6,0.2,5.4,0.2c25.9,0,53.8-14.3,72.8-37.4c20.1-24.3,30.2-55.6,27.1-83.5
		C360.2,1.5,358.2-0.1,356.1,0z"/>
</g>
</svg>
